<svg xmlns="http://www.w3.org/2000/svg" xmlns:xlink="http://www.w3.org/1999/xlink" width="500" zoomAndPan="magnify" viewBox="0 0 375 299.999988" height="400" preserveAspectRatio="xMidYMid meet" version="1.0"><path fill="#192441" d="M 314.523438 222.835938 C 306.921875 224.652344 293.628906 225.902344 277.648438 219.15625 C 274.273438 217.730469 270.480469 217.699219 267.066406 219.035156 C 248.980469 226.066406 220.425781 225.625 204.429688 221.933594 C 191.726562 219 188.660156 225.78125 194.382812 231.980469 C 205.417969 243.945312 222.859375 243.988281 232.914062 261.578125 C 242.960938 279.167969 241.660156 287.496094 244.734375 289.449219 C 247.808594 291.402344 262.191406 288.367188 265.023438 282.242188 C 266.699219 278.613281 250.8125 275.125 247.433594 256.558594 C 246.871094 253.484375 280.097656 264.9375 300.203125 251.53125 C 311.75 243.828125 317.03125 234.753906 319.433594 228.417969 C 320.625 225.273438 317.796875 222.054688 314.523438 222.84375 Z M 314.523438 222.835938 " fill-opacity="1" fill-rule="nonzero"/><path fill="#192441" d="M 143.980469 167.691406 C 143.980469 167.691406 151.738281 165.363281 163.1875 170.796875 C 173.105469 175.5 191.460938 172.640625 201.238281 164.855469 C 203.765625 162.84375 207.203125 162.371094 210.152344 163.679688 C 214.820312 165.75 222.675781 168.191406 233.613281 168.078125 C 252.433594 167.882812 254.375 163.808594 257.867188 153.714844 C 261.363281 143.628906 258.472656 130.28125 244.289062 126.941406 C 237.886719 125.433594 233.035156 126.203125 230.398438 126.929688 C 228.96875 127.328125 227.425781 127.085938 226.191406 126.253906 C 221.472656 123.09375 208.769531 116.332031 192.480469 121.503906 C 171.71875 128.101562 167.253906 138.769531 167.253906 138.769531 C 167.253906 138.769531 123.59375 139.542969 109.820312 171.171875 C 96.046875 202.796875 125.339844 221.425781 146.105469 222.398438 C 166.867188 223.371094 184.527344 215.023438 194.226562 213.472656 C 203.925781 211.917969 217.121094 221.8125 242.542969 217.929688 C 267.960938 214.050781 274.167969 209.390625 274.554688 197.558594 C 274.941406 185.722656 263.109375 181.644531 259.226562 177.765625 C 255.347656 173.882812 254.570312 170.582031 241.375 172.523438 C 229.984375 174.199219 218.320312 172.207031 209.921875 169.074219 C 207.460938 168.152344 204.734375 168.28125 202.394531 169.496094 C 197.070312 172.242188 187.195312 178.886719 174.242188 176.984375 C 166.285156 175.816406 159.105469 191.34375 152.699219 197.359375 C 152.699219 197.359375 159.6875 181.835938 160.074219 176.402344 C 160.460938 170.96875 143.96875 167.671875 143.96875 167.671875 Z M 143.980469 167.691406 " fill-opacity="1" fill-rule="nonzero"/><path fill="#192441" d="M 338.875 191.976562 C 349.386719 193.328125 351.234375 180.167969 351.234375 180.167969 C 354.601562 166.722656 351.273438 158.324219 348.722656 154.265625 C 347.546875 152.394531 347.457031 150.042969 348.535156 148.121094 C 351.054688 143.640625 354.445312 134.988281 350.308594 125.503906 C 346.117188 115.910156 336.644531 111.710938 324.101562 119.613281 C 317.917969 123.507812 314.136719 128.910156 311.886719 133.386719 C 309.921875 137.292969 305.46875 139.351562 301.246094 138.195312 C 289.199219 134.902344 276.058594 140.253906 268.949219 148.050781 C 260.292969 157.546875 260.015625 173.457031 270.625 179.601562 C 281.234375 185.742188 280.671875 200.265625 280.117188 205.007812 C 279.558594 209.753906 278.71875 218.132812 301.621094 216.179688 C 308.65625 215.578125 314.882812 213.863281 318.671875 211.222656 C 322.464844 208.578125 331.730469 206.703125 331.011719 197.800781 C 330.640625 193.296875 325.96875 190.609375 323.109375 187.855469 C 320.328125 185.183594 317.65625 182.585938 315.855469 180.824219 C 314.601562 179.601562 312.738281 179.292969 311.121094 179.976562 C 303.617188 183.152344 293.808594 178.925781 293.808594 178.925781 C 293.808594 178.925781 308.1875 180.21875 310.507812 172.929688 C 312.464844 166.773438 310.210938 156.984375 310.210938 156.984375 C 313.820312 160.722656 314.878906 167.882812 315.179688 171.105469 C 315.285156 172.234375 315.726562 173.289062 316.457031 174.160156 C 319.988281 178.363281 330.867188 190.597656 338.875 191.976562 Z M 338.875 191.976562 " fill-opacity="1" fill-rule="nonzero"/><path fill="#192441" d="M 292.96875 132.375 C 281.464844 132.800781 276.425781 137.125 271.074219 139.988281 C 265.46875 142.984375 263.1875 138.433594 260.246094 132.738281 C 258.25 128.855469 259.5625 126.15625 261.207031 124.609375 C 262.851562 123.0625 264.597656 120.84375 271.363281 121.136719 C 278.132812 121.425781 282 116.882812 282 116.882812 C 276.902344 118.621094 270.28125 118.746094 266.679688 115.941406 C 263.078125 113.136719 262.675781 99.394531 262.675781 99.394531 C 259.609375 105.132812 260.808594 111.539062 260.808594 114.878906 C 260.808594 118.214844 259.738281 119.414062 257.070312 122.082031 C 254.402344 124.75 251.996094 125.285156 245.0625 122.347656 C 240.105469 120.253906 234.335938 120.40625 231.449219 120.664062 C 230.25 120.773438 229.050781 120.472656 228.03125 119.832031 C 217.746094 113.335938 206.414062 115.058594 202.347656 112.898438 C 198.074219 110.628906 190.746094 99.53125 195.285156 82.316406 C 198.519531 70.035156 206.679688 63.398438 211.089844 60.601562 C 212.789062 59.523438 213.988281 57.804688 214.367188 55.832031 C 216.65625 43.824219 230.519531 23.894531 252.707031 26.105469 C 276.972656 28.523438 283.0625 45.636719 283.0625 45.636719 C 283.0625 45.636719 295.4375 46.117188 307.523438 55.59375 C 319.609375 65.066406 320.285156 80.921875 320.285156 80.921875 C 320.285156 80.921875 330.628906 85.660156 332.464844 94.84375 C 334.304688 104.03125 332.550781 110.042969 327.15625 112.382812 C 319.71875 115.605469 314.078125 123.636719 311.570312 126.988281 C 309.058594 130.339844 305.351562 131.105469 306.113281 123.449219 C 306.878906 115.792969 312.414062 98.292969 295.449219 87.703125 C 278.488281 77.113281 258.34375 75.101562 254.394531 72.421875 C 250.4375 69.742188 248.59375 62.664062 249.941406 60.601562 C 251.28125 58.539062 255.585938 56.746094 255.585938 46.71875 C 255.585938 46.71875 252.539062 56.390625 246.628906 58.453125 C 240.71875 60.515625 233.816406 54.15625 233.816406 54.15625 C 233.816406 54.15625 233.1875 58.5 243.398438 61.59375 C 246.355469 62.488281 248.246094 69.835938 248.066406 73.503906 C 247.882812 77.179688 240.117188 84.417969 235.714844 85.542969 C 232.402344 86.394531 226.3125 85.285156 221.898438 88.109375 C 221.898438 88.109375 231.90625 88.605469 233.722656 91.066406 C 237.753906 96.535156 236.773438 105.132812 236.773438 105.132812 C 236.773438 105.132812 240.105469 99.351562 239.191406 93.039062 C 238.203125 86.234375 250.296875 78.976562 253.523438 78.527344 C 256.746094 78.082031 273.679688 81.304688 289.535156 89.546875 C 305.390625 97.789062 304.113281 112.671875 302.167969 123.5 C 300.898438 130.539062 301.15625 132.09375 292.976562 132.394531 Z M 292.96875 132.375 " fill-opacity="1" fill-rule="nonzero"/><path fill="#192441" d="M 142.859375 26.34375 C 142.859375 26.34375 147.402344 9.199219 181.890625 16.019531 C 181.890625 16.019531 189.742188 8.582031 209.980469 13.332031 C 230.21875 18.082031 224.023438 27.375 219.894531 32.746094 C 216.050781 37.738281 210.425781 44.339844 208.328125 52.375 C 208.035156 53.519531 207.363281 54.53125 206.402344 55.210938 C 202.675781 57.847656 193.074219 65.875 189.121094 80.859375 C 184.167969 99.652344 191.605469 108.121094 191.605469 112.667969 C 191.605469 117.210938 174.046875 119.480469 164.964844 132.285156 C 164.964844 132.285156 126.757812 133.523438 108.789062 160.375 C 90.820312 187.226562 62.113281 186.808594 50.34375 171.730469 C 38.574219 156.65625 44.355469 141.167969 44.355469 141.167969 C 44.355469 141.167969 20.398438 126.503906 35.265625 102.960938 C 50.136719 79.414062 100.667969 79.6875 105.480469 84.578125 C 115.222656 94.464844 123.863281 93.871094 123.863281 93.871094 C 123.863281 93.871094 109.773438 86.136719 109.21875 79.808594 C 108.664062 73.480469 126.324219 67.257812 126.324219 67.257812 C 126.324219 67.257812 115.109375 65.589844 104.890625 75.8125 C 102.445312 78.253906 69.75 78.984375 67.570312 75.367188 C 58.597656 60.453125 108.660156 25.945312 133.203125 36.496094 C 157.746094 47.046875 154.382812 59.707031 153.640625 70.609375 C 152.898438 81.515625 153.066406 91.640625 131.257812 103.65625 C 109.445312 115.667969 98.1875 117.746094 74.710938 104.4375 C 74.710938 104.4375 86.292969 112.929688 86.101562 116.089844 C 85.664062 123.183594 73.171875 129.90625 73.171875 129.90625 C 73.171875 129.90625 83.039062 126.316406 87.699219 120.910156 C 92.726562 115.070312 97.785156 116.109375 100.847656 117.875 C 105.972656 120.839844 94.578125 139.652344 87.636719 142.554688 C 79.996094 145.742188 72.183594 153.007812 72.183594 153.007812 C 72.183594 153.007812 84.59375 145.394531 89.921875 147.269531 C 95.253906 149.148438 99.328125 157.648438 99.328125 157.648438 C 99.328125 157.648438 95.078125 146.789062 95.96875 142.84375 C 96.859375 138.890625 105.546875 123.003906 110.179688 119.054688 C 114.820312 115.101562 132.609375 107.789062 141.273438 101.089844 C 150.0625 94.296875 153.121094 91.617188 156.277344 94.871094 C 159.4375 98.125 154.996094 108.394531 158.25 116.882812 C 158.25 116.882812 159.234375 105.132812 163.675781 100.988281 C 168.117188 96.84375 177.003906 101.1875 177.003906 101.1875 C 177.003906 101.1875 172.171875 96.644531 165.847656 95.0625 C 159.53125 93.484375 157.457031 90.03125 157.261719 85.886719 C 157.0625 81.742188 158.328125 63.515625 160.777344 60.453125 C 164.8125 55.40625 172.867188 50.347656 177.300781 50.347656 C 180.957031 50.347656 184.210938 58.242188 190.925781 58.046875 C 190.925781 58.046875 183.226562 52.621094 182.046875 45.214844 C 180.867188 37.84375 190.335938 34.554688 190.335938 34.554688 C 190.335938 34.554688 182.238281 33.570312 178.191406 41.367188 C 174.144531 49.167969 162.246094 53.246094 159.730469 52.621094 C 155.78125 51.636719 155.78125 45.023438 146.402344 37.914062 C 141.53125 34.21875 141.355469 31.953125 142.84375 26.34375 Z M 142.859375 26.34375 " fill-opacity="1" fill-rule="nonzero"/></svg>